<svg width="11" height="10" viewBox="0 0 11 10" fill="none" xmlns="http://www.w3.org/2000/svg">
<path d="M9.21185 1.84625C8.67898 1.31929 7.97262 0.997658 7.22036 0.939462C6.46809 0.881267 5.71953 1.09034 5.10988 1.52892C4.47029 1.05968 3.67419 0.846911 2.88191 0.933446C2.08963 1.01998 1.36002 1.3994 0.840005 1.99529C0.319987 2.59118 0.0481892 3.35928 0.0793454 4.14492C0.110502 4.93056 0.442297 5.67538 1.00792 6.22938L4.12963 9.31345C4.39104 9.5672 4.74311 9.70942 5.10988 9.70942C5.47665 9.70942 5.82872 9.5672 6.09013 9.31345L9.21185 6.22938C9.79878 5.64692 10.1282 4.85905 10.1282 4.03782C10.1282 3.21659 9.79878 2.42872 9.21185 1.84625ZM8.50305 5.54514L5.38134 8.62424C5.34581 8.65962 5.30353 8.68771 5.25694 8.70687C5.21035 8.72604 5.16037 8.73591 5.10988 8.73591C5.0594 8.73591 5.00942 8.72604 4.96283 8.70687C4.91623 8.68771 4.87395 8.65962 4.83843 8.62424L1.71671 5.53027C1.32248 5.13278 1.10172 4.59883 1.10172 4.04278C1.10172 3.48672 1.32248 2.95277 1.71671 2.55529C2.11844 2.16407 2.66025 1.94471 3.22479 1.94471C3.78933 1.94471 4.33114 2.16407 4.73286 2.55529C4.7796 2.60176 4.83519 2.63865 4.89645 2.66382C4.95771 2.68899 5.02341 2.70195 5.08978 2.70195C5.15614 2.70195 5.22184 2.68899 5.2831 2.66382C5.34436 2.63865 5.39996 2.60176 5.44669 2.55529C5.84842 2.16407 6.39023 1.94471 6.95476 1.94471C7.5193 1.94471 8.06111 2.16407 8.46284 2.55529C8.86249 2.94756 9.09049 3.47862 9.09801 4.03469C9.10553 4.59076 8.89196 5.12762 8.50305 5.53027V5.54514Z" fill="black"/>
</svg>
