<svg width="123" height="33" viewBox="0 0 123 33" fill="none" xmlns="http://www.w3.org/2000/svg">
<path d="M14.57 3.94V8.05H5.99V12.49H12.41V16.48H5.99V25H0.86V3.94H14.57ZM22.3963 11.05C22.9963 10.13 23.7463 9.41 24.6463 8.89C25.5463 8.35 26.5463 8.08 27.6463 8.08V13.51H26.2363C24.9563 13.51 23.9963 13.79 23.3563 14.35C22.7163 14.89 22.3963 15.85 22.3963 17.23V25H17.2663V8.26H22.3963V11.05ZM45.8783 16.36C45.8783 16.84 45.8483 17.34 45.7883 17.86H34.1783C34.2583 18.9 34.5883 19.7 35.1683 20.26C35.7683 20.8 36.4983 21.07 37.3583 21.07C38.6383 21.07 39.5283 20.53 40.0283 19.45H45.4883C45.2083 20.55 44.6983 21.54 43.9583 22.42C43.2383 23.3 42.3283 23.99 41.2283 24.49C40.1283 24.99 38.8983 25.24 37.5383 25.24C35.8983 25.24 34.4383 24.89 33.1583 24.19C31.8783 23.49 30.8783 22.49 30.1583 21.19C29.4383 19.89 29.0783 18.37 29.0783 16.63C29.0783 14.89 29.4283 13.37 30.1283 12.07C30.8483 10.77 31.8483 9.77 33.1283 9.07C34.4083 8.37 35.8783 8.02 37.5383 8.02C39.1583 8.02 40.5983 8.36 41.8583 9.04C43.1183 9.72 44.0983 10.69 44.7983 11.95C45.5183 13.21 45.8783 14.68 45.8783 16.36ZM40.6283 15.01C40.6283 14.13 40.3283 13.43 39.7283 12.91C39.1283 12.39 38.3783 12.13 37.4783 12.13C36.6183 12.13 35.8883 12.38 35.2883 12.88C34.7083 13.38 34.3483 14.09 34.2083 15.01H40.6283ZM55.3946 25.24C53.9346 25.24 52.6346 24.99 51.4946 24.49C50.3546 23.99 49.4546 23.31 48.7946 22.45C48.1346 21.57 47.7646 20.59 47.6846 19.51H52.7546C52.8146 20.09 53.0846 20.56 53.5646 20.92C54.0446 21.28 54.6346 21.46 55.3346 21.46C55.9746 21.46 56.4646 21.34 56.8046 21.1C57.1646 20.84 57.3446 20.51 57.3446 20.11C57.3446 19.63 57.0946 19.28 56.5946 19.06C56.0946 18.82 55.2846 18.56 54.1646 18.28C52.9646 18 51.9646 17.71 51.1646 17.41C50.3646 17.09 49.6746 16.6 49.0946 15.94C48.5146 15.26 48.2246 14.35 48.2246 13.21C48.2246 12.25 48.4846 11.38 49.0046 10.6C49.5446 9.8 50.3246 9.17 51.3446 8.71C52.3846 8.25 53.6146 8.02 55.0346 8.02C57.1346 8.02 58.7846 8.54 59.9846 9.58C61.2046 10.62 61.9046 12 62.0846 13.72H57.3446C57.2646 13.14 57.0046 12.68 56.5646 12.34C56.1446 12 55.5846 11.83 54.8846 11.83C54.2846 11.83 53.8246 11.95 53.5046 12.19C53.1846 12.41 53.0246 12.72 53.0246 13.12C53.0246 13.6 53.2746 13.96 53.7746 14.2C54.2946 14.44 55.0946 14.68 56.1746 14.92C57.4146 15.24 58.4246 15.56 59.2046 15.88C59.9846 16.18 60.6646 16.68 61.2446 17.38C61.8446 18.06 62.1546 18.98 62.1746 20.14C62.1746 21.12 61.8946 22 61.3346 22.78C60.7946 23.54 60.0046 24.14 58.9646 24.58C57.9446 25.02 56.7546 25.24 55.3946 25.24ZM75.6031 8.08C77.5231 8.08 79.0631 8.72 80.2231 10C81.3831 11.26 81.9631 13 81.9631 15.22V25H76.8631V15.91C76.8631 14.79 76.5731 13.92 75.9931 13.3C75.4131 12.68 74.6331 12.37 73.6531 12.37C72.6731 12.37 71.8931 12.68 71.3131 13.3C70.7331 13.92 70.4431 14.79 70.4431 15.91V25H65.3131V2.8H70.4431V10.51C70.9631 9.77 71.6731 9.18 72.5731 8.74C73.4731 8.3 74.4831 8.08 75.6031 8.08ZM88.108 6.52C87.208 6.52 86.468 6.26 85.888 5.74C85.328 5.2 85.048 4.54 85.048 3.76C85.048 2.96 85.328 2.3 85.888 1.78C86.468 1.24 87.208 0.969998 88.108 0.969998C88.988 0.969998 89.708 1.24 90.268 1.78C90.848 2.3 91.138 2.96 91.138 3.76C91.138 4.54 90.848 5.2 90.268 5.74C89.708 6.26 88.988 6.52 88.108 6.52ZM90.658 8.26V25H85.528V8.26H90.658ZM102.776 12.52H100.016V25H94.8856V12.52H93.0256V8.26H94.8856V7.78C94.8856 5.72 95.4756 4.16 96.6556 3.1C97.8356 2.02 99.5656 1.48 101.846 1.48C102.226 1.48 102.506 1.49 102.686 1.51V5.86C101.706 5.8 101.016 5.94 100.616 6.28C100.216 6.62 100.016 7.23 100.016 8.11V8.26H102.776V12.52ZM122.286 8.26L111.786 32.95H106.266L110.106 24.43L103.296 8.26H109.026L112.896 18.73L116.736 8.26H122.286Z" fill="#BC4749"/>
</svg>
