<svg width="30" height="28" viewBox="0 0 30 28" fill="none" xmlns="http://www.w3.org/2000/svg">
<path d="M28.9981 0.645941C28.6098 0.322934 28.1412 0.111239 27.6422 0.0333863C27.1432 -0.0444664 26.6324 0.0144359 26.1642 0.203825L1.72594 10.0705C1.20332 10.2855 0.758442 10.6544 0.450366 11.1282C0.14229 11.6019 -0.0144175 12.1582 0.00104316 12.7231C0.0165038 13.288 0.203401 13.8349 0.536929 14.2911C0.870457 14.7473 1.33484 15.0913 1.86845 15.2775L6.81176 16.9967L9.56706 26.1083C9.6045 26.23 9.65884 26.3458 9.72849 26.4524C9.73906 26.4688 9.75396 26.481 9.7652 26.4969C9.84566 26.6091 9.9429 26.7084 10.0535 26.7911C10.085 26.8151 10.1151 26.8376 10.1487 26.8589C10.2782 26.9447 10.4216 27.0075 10.5725 27.0445L10.5886 27.0458L10.5978 27.0497C10.6885 27.0682 10.7808 27.0776 10.8734 27.0777C10.8823 27.0777 10.8902 27.0735 10.8991 27.0733C11.0388 27.0708 11.1773 27.0468 11.3097 27.002C11.3404 26.9915 11.3668 26.9739 11.3967 26.9613C11.4954 26.9204 11.5889 26.8679 11.6753 26.805C11.7445 26.7467 11.8137 26.6885 11.8829 26.6302L15.5677 22.5619L21.0637 26.8194C21.5476 27.1961 22.1431 27.4008 22.7563 27.4013C23.3988 27.4005 24.0216 27.1788 24.5201 26.7734C25.0186 26.368 25.3625 25.8036 25.4943 25.1747L29.9436 3.33334C30.0444 2.84176 30.0097 2.33202 29.8431 1.85865C29.6766 1.38528 29.3845 0.966097 28.9981 0.645941ZM11.4142 17.4308C11.2251 17.6192 11.0958 17.8591 11.0426 18.1207L10.6205 20.1716L9.55133 16.6355L15.095 13.7487L11.4142 17.4308ZM22.735 24.6633L16.2403 19.6321C15.9685 19.4221 15.6277 19.3223 15.2856 19.3524C14.9435 19.3825 14.6254 19.5404 14.3945 19.7946L13.2144 21.0971L13.6314 19.0701L23.2903 9.41123C23.5209 9.18099 23.6613 8.87579 23.6863 8.55092C23.7112 8.22605 23.619 7.90299 23.4263 7.64025C23.2336 7.37752 22.9532 7.19248 22.6358 7.11867C22.3184 7.04486 21.9851 7.08715 21.6963 7.23788L7.83417 14.4553L2.75537 12.5967L27.2721 2.78864L22.735 24.6633Z" fill="#132A13"/>
</svg>
